<svg width="12" height="10" viewBox="0 0 12 10" fill="none" xmlns="http://www.w3.org/2000/svg">
<path d="M5.707 0.293031C5.51947 0.10556 5.26516 0.000244141 5 0.000244141C4.73484 0.000244141 4.48053 0.10556 4.293 0.293031L0.293 4.29303C0.105529 4.48056 0.000213623 4.73487 0.000213623 5.00003C0.000213623 5.26519 0.105529 5.5195 0.293 5.70703L4.293 9.70703C4.4816 9.88919 4.7342 9.98998 4.9964 9.9877C5.2586 9.98543 5.50941 9.88026 5.69482 9.69485C5.88023 9.50944 5.9854 9.25863 5.98767 8.99643C5.98995 8.73423 5.88916 8.48163 5.707 8.29303L3.414 6.00003H11C11.2652 6.00003 11.5196 5.89467 11.7071 5.70714C11.8946 5.5196 12 5.26525 12 5.00003C12 4.73481 11.8946 4.48046 11.7071 4.29292C11.5196 4.10539 11.2652 4.00003 11 4.00003H3.414L5.707 1.70703C5.89447 1.5195 5.99979 1.26519 5.99979 1.00003C5.99979 0.734866 5.89447 0.480558 5.707 0.293031Z" fill="black"/>
</svg>
