<svg width="32" height="32" viewBox="0 0 32 32" fill="none" xmlns="http://www.w3.org/2000/svg">
<path d="M28.724 8.66392C29.3333 11.0399 29.3333 15.9999 29.3333 15.9999C29.3333 15.9999 29.3333 20.9599 28.724 23.3359C28.3853 24.6493 27.3946 25.6826 26.14 26.0319C23.8613 26.6666 16 26.6666 16 26.6666C16 26.6666 8.14263 26.6666 5.85996 26.0319C4.59996 25.6773 3.61063 24.6453 3.27596 23.3359C2.66663 20.9599 2.66663 15.9999 2.66663 15.9999C2.66663 15.9999 2.66663 11.0399 3.27596 8.66392C3.61463 7.35059 4.60529 6.31725 5.85996 5.96792C8.14263 5.33325 16 5.33325 16 5.33325C16 5.33325 23.8613 5.33325 26.14 5.96792C27.4 6.32259 28.3893 7.35459 28.724 8.66392ZM13.3333 20.6666L21.3333 15.9999L13.3333 11.3333V20.6666Z" fill="#6854FC"/>
</svg>
